<?xml version="1.0" encoding="utf-8"?>
<!-- Generator: Adobe Illustrator 18.1.1, SVG Export Plug-In . SVG Version: 6.00 Build 0)  -->
<!DOCTYPE svg PUBLIC "-//W3C//DTD SVG 1.1//EN" "http://www.w3.org/Graphics/SVG/1.1/DTD/svg11.dtd">
<svg version="1.1" id="Layer_1" xmlns="http://www.w3.org/2000/svg" xmlns:xlink="http://www.w3.org/1999/xlink" x="0px" y="0px"
	 viewBox="0 0 139 137.7" enable-background="new 0 0 139 137.7" xml:space="preserve">
<g>
	<path fill="#F8981D" d="M98.6,41.1c0.7,2.8-1.6,2.2-2.7,2.4c-3.2,0.6-3.3,0.5-3.3,3.7c0,11.1,0.1,22.3-0.1,33.4c0,3-0.4,6.1-1.3,9
		c-1.8,5.9-6.1,9.3-12.1,10.3c-4.2,0.7-8.5,1.1-12.8,1.1c-5.3-0.1-10.7-0.6-15.2-3.9c-3.5-2.5-5.7-6-6-10.3
		c-0.4-5.9-0.3-11.9-0.4-17.8c-0.1-4.4,0-8.8,0-13.2c0-1.6-0.3-2.9-2.3-3.1c-0.4,0-0.9-0.2-1.1-0.4c-0.4-0.3-0.6-0.8-0.8-1.3
		c0.4-0.2,0.8-0.7,1.2-0.7c4.8-0.1,9.5,0,14.3,0c0.4,0,0.8,0.5,1.2,0.7c-0.4,0.5-0.8,1.3-1.2,1.3c-3.7,0.3-4.2,0.7-4.1,5.3
		c0.1,6.4-0.1,12.9,0,19.3c0,2.9,0.3,5.9,0.7,8.8c0.9,5.3,3.5,7.6,8.9,8.8c4,0.9,7.9,0.5,11.8-0.8c4.2-1.5,6.3-4.8,6.4-8.6
		C80,73.8,80,62.2,80.2,50.7c0.1-2.8,0.2-5.9,2.8-7.8c1.1-0.8,2.5-1.6,3.8-1.7C90.6,41,94.6,41.1,98.6,41.1z"/>
	<path fill="#F8981D" d="M122,68.9c0.3-13.9-5.9-28.3-16.5-38.3c-10.1-9.5-22.3-14.4-36.1-14.3c-14,0.1-26.3,5.1-36.5,15.1
		C22.7,41.3,17.4,53.5,17,67.6c-0.4,13.4,4,25.4,12.9,35.6c10.5,11.9,23.9,18.1,39.6,18.2c13.6,0.1,25.8-4.8,35.8-14.2
		C116.3,96.9,121.8,84,122,68.9z M132.4,68.8c0,34.7-28.2,62.9-62.9,62.9S6.6,103.6,6.6,68.8S34.8,5.9,69.5,5.9
		S132.4,34.1,132.4,68.8z"/>
</g>
</svg>
